<?xml version="1.0" standalone="no"?>
<!DOCTYPE svg PUBLIC "-//W3C//DTD SVG 20010904//EN"
 "http://www.w3.org/TR/2001/REC-SVG-20010904/DTD/svg10.dtd">
<svg version="1.0" xmlns="http://www.w3.org/2000/svg"
 width="700.000000pt" height="700.000000pt" viewBox="0 0 700.000000 700.000000"
 preserveAspectRatio="xMidYMid meet">
<metadata>
Created by potrace 1.14, written by Peter Selinger 2001-2017
</metadata>
<g transform="translate(0.000000,700.000000) scale(0.100000,-0.100000)"
fill="#000000" stroke="none">
<path d="M3764 6962 c4 -7 28 -26 54 -43 66 -45 225 -162 237 -174 6 -6 50
-45 99 -86 292 -244 606 -614 822 -969 141 -234 293 -562 382 -825 59 -174
126 -432 151 -580 6 -33 13 -73 15 -89 3 -16 8 -50 12 -75 4 -25 8 -55 10 -66
2 -10 7 -49 10 -85 9 -84 12 -113 13 -121 1 -4 313 -6 693 -5 l693 1 -3 40
c-2 22 -5 51 -7 65 -8 54 -16 106 -20 126 -3 12 -7 39 -10 60 -4 21 -8 47 -11
56 -3 10 -7 30 -10 45 -21 120 -129 470 -175 567 -11 22 -19 43 -19 48 0 15
-128 274 -186 373 -31 55 -93 154 -138 220 -282 418 -654 770 -1092 1035 -361
217 -807 382 -1199 444 -16 2 -50 8 -75 11 -25 4 -52 9 -61 10 -8 2 -51 6 -94
10 -43 3 -83 9 -88 12 -6 3 -7 1 -3 -5z"/>
<path d="M2342 6775 c-958 -348 -1699 -1062 -2071 -1997 -89 -223 -167 -506
-196 -708 -3 -19 -12 -75 -19 -125 -9 -56 -10 -92 -4 -96 5 -3 1091 -6 2414
-6 1768 0 2404 3 2404 11 0 10 -12 99 -25 186 -61 408 -229 875 -441 1226 -52
87 -155 246 -164 254 -3 3 -25 32 -49 65 -125 169 -359 418 -516 551 -38 32
-72 61 -75 64 -42 42 -328 239 -440 304 -218 125 -639 307 -706 306 -11 -1
-61 -16 -112 -35z"/>
<path d="M44 3153 c2 -10 8 -49 11 -88 4 -38 8 -72 10 -75 1 -3 6 -25 9 -50
38 -276 152 -647 288 -930 223 -465 559 -892 948 -1204 47 -38 94 -76 105 -85
45 -37 239 -164 342 -224 186 -109 473 -239 645 -292 63 -19 75 -17 228 41
476 183 867 434 1218 781 157 155 238 247 348 395 164 221 293 442 398 683 26
61 51 119 56 130 28 62 108 314 135 425 13 54 27 119 31 140 3 14 11 59 19
100 13 73 18 107 31 218 l6 52 -2417 0 c-2296 0 -2416 -1 -2411 -17z"/>
<path d="M5569 3153 c-1 -10 -3 -27 -4 -38 -1 -11 -5 -49 -9 -85 -14 -126 -32
-249 -41 -280 -2 -8 -7 -35 -10 -60 -11 -77 -94 -394 -136 -523 -210 -631
-559 -1195 -1018 -1646 -168 -164 -264 -243 -566 -465 -19 -14 -18 -15 15 -16
65 0 368 49 512 84 929 224 1710 809 2199 1645 126 215 232 467 334 791 16 50
60 244 69 305 4 22 8 47 11 55 2 8 6 38 10 65 7 58 12 95 20 148 l6 37 -696 0
c-655 0 -695 -1 -696 -17z"/>
</g>
</svg>
